<svg xmlns="http://www.w3.org/2000/svg" viewBox="0 0 480 306" role="img" aria-labelledby="title desc">
<title id="title">Gisa Crochê</title>
<desc id="desc">Logotipo oficial da Gisa Crochê.</desc>
<path fill="#9A4C33" fill-rule="evenodd" d="M 440 197 L 440 190 L 437 185 L 437 183 L 434 177 L 431 175 L 428 175 L 422 178 L 409 189 L 409 192 L 412 193 L 413 192 L 419 191 L 426 187 L 428 187 L 431 190 L 434 196 L 436 198 L 439 198 Z M 164 21 L 164 23 L 165 24 L 171 24 L 172 25 L 175 25 L 177 26 L 180 30 L 180 129 L 176 134 L 174 135 L 167 135 L 166 136 L 164 136 L 164 138 L 166 139 L 226 139 L 227 138 L 227 136 L 225 135 L 215 134 L 212 131 L 212 30 L 214 28 L 214 27 L 217 25 L 220 25 L 221 24 L 226 24 L 227 23 L 227 21 L 225 20 L 167 20 L 166 21 Z M 399 19 L 397 19 L 395 21 L 392 27 L 392 29 L 382 48 L 382 50 L 380 52 L 380 54 L 374 65 L 374 67 L 364 86 L 364 88 L 362 90 L 362 92 L 354 107 L 354 109 L 346 125 L 340 132 L 339 132 L 337 134 L 331 135 L 330 136 L 330 138 L 332 139 L 334 139 L 335 138 L 345 138 L 346 140 L 343 143 L 343 144 L 339 149 L 338 152 L 334 157 L 332 162 L 330 164 L 327 171 L 325 173 L 322 179 L 322 181 L 314 196 L 314 198 L 309 208 L 309 211 L 308 212 L 308 219 L 307 220 L 307 222 L 304 229 L 301 232 L 296 235 L 290 241 L 289 241 L 279 249 L 267 255 L 261 255 L 257 251 L 257 242 L 259 239 L 260 235 L 262 233 L 265 227 L 274 218 L 281 214 L 287 214 L 287 210 L 285 208 L 281 206 L 275 206 L 274 207 L 271 207 L 267 209 L 251 225 L 238 233 L 237 232 L 236 223 L 234 219 L 232 217 L 230 217 L 226 215 L 219 215 L 217 216 L 208 225 L 208 226 L 159 276 L 158 276 L 154 280 L 149 282 L 147 280 L 147 275 L 150 269 L 150 267 L 156 256 L 156 253 L 157 252 L 157 247 L 156 246 L 156 244 L 150 237 L 150 236 L 139 226 L 139 223 L 148 213 L 150 209 L 150 202 L 146 198 L 144 198 L 143 197 L 135 199 L 133 201 L 132 201 L 126 208 L 126 210 L 125 211 L 125 216 L 128 223 L 133 228 L 133 229 L 134 229 L 136 231 L 136 232 L 137 232 L 138 234 L 139 234 L 141 236 L 145 243 L 145 252 L 144 253 L 143 260 L 142 261 L 142 263 L 140 267 L 140 271 L 139 272 L 139 277 L 140 278 L 140 281 L 144 285 L 146 286 L 155 286 L 161 283 L 167 278 L 168 278 L 181 265 L 181 264 L 189 255 L 189 254 L 193 250 L 193 249 L 201 241 L 203 245 L 203 249 L 204 250 L 204 252 L 207 256 L 211 258 L 220 258 L 225 255 L 229 251 L 234 241 L 236 239 L 248 233 L 249 234 L 248 245 L 249 246 L 249 250 L 252 255 L 262 260 L 273 260 L 287 253 L 290 250 L 291 250 L 298 244 L 299 244 L 299 243 L 302 240 L 303 241 L 303 246 L 302 247 L 302 253 L 303 254 L 303 256 L 309 263 L 312 263 L 314 264 L 315 263 L 318 263 L 320 261 L 321 261 L 339 242 L 341 243 L 341 245 L 343 248 L 343 250 L 345 254 L 349 258 L 353 259 L 354 260 L 360 260 L 371 255 L 380 248 L 384 246 L 389 241 L 390 241 L 391 239 L 393 241 L 395 249 L 399 253 L 403 254 L 404 255 L 409 255 L 410 254 L 413 254 L 418 251 L 423 250 L 425 248 L 431 245 L 438 239 L 439 239 L 458 220 L 458 218 L 452 221 L 445 227 L 444 227 L 436 233 L 433 234 L 430 237 L 425 239 L 423 241 L 413 246 L 410 246 L 409 247 L 403 247 L 401 245 L 401 243 L 400 242 L 401 240 L 401 236 L 403 234 L 411 233 L 423 228 L 429 222 L 432 216 L 431 210 L 428 207 L 420 203 L 413 203 L 408 206 L 400 214 L 400 215 L 396 220 L 395 224 L 392 230 L 385 232 L 376 239 L 372 241 L 365 247 L 364 247 L 360 251 L 356 253 L 354 253 L 353 252 L 352 241 L 351 240 L 350 236 L 344 232 L 341 232 L 335 235 L 333 235 L 326 241 L 326 242 L 320 248 L 319 250 L 318 250 L 313 254 L 312 253 L 312 242 L 313 241 L 313 237 L 314 236 L 314 234 L 316 232 L 317 232 L 318 230 L 320 229 L 326 223 L 327 223 L 339 211 L 339 210 L 344 205 L 344 204 L 351 197 L 355 190 L 362 181 L 363 178 L 365 176 L 369 168 L 371 166 L 373 161 L 375 159 L 376 155 L 384 139 L 384 136 L 385 135 L 385 130 L 386 129 L 385 128 L 384 122 L 382 120 L 382 119 L 381 119 L 379 117 L 376 117 L 375 116 L 371 117 L 367 119 L 365 121 L 360 123 L 357 126 L 356 125 L 364 107 L 367 104 L 368 105 L 372 105 L 373 104 L 386 104 L 387 105 L 391 105 L 392 104 L 405 104 L 407 106 L 412 116 L 412 118 L 415 123 L 416 130 L 414 134 L 410 134 L 409 135 L 401 135 L 398 137 L 400 139 L 460 139 L 461 138 L 461 136 L 459 136 L 452 133 L 447 127 L 446 123 L 442 116 L 442 114 L 437 105 L 437 103 L 431 91 L 431 89 L 428 84 L 428 82 L 419 64 L 419 62 L 416 57 L 416 55 L 414 53 L 414 51 L 411 46 L 411 44 L 408 39 L 408 37 L 405 32 L 405 30 Z M 201 241 L 202 240 L 203 241 L 202 242 Z M 218 234 L 223 239 L 225 239 L 226 241 L 217 251 L 213 252 L 211 250 L 211 243 L 212 242 L 213 238 L 217 234 Z M 405 227 L 406 226 L 407 227 L 406 228 Z M 230 223 L 231 224 L 230 232 L 228 235 L 226 235 L 223 232 L 223 229 L 227 224 Z M 420 210 L 421 211 L 421 214 L 420 216 L 410 226 L 407 227 L 406 226 L 408 224 L 408 223 Z M 321 197 L 322 196 L 323 197 L 322 198 Z M 346 192 L 347 191 L 348 192 L 347 193 Z M 347 191 L 348 190 L 349 191 L 348 192 Z M 349 188 L 350 187 L 351 188 L 350 189 Z M 351 185 L 352 184 L 353 185 L 352 186 Z M 328 181 L 329 180 L 330 181 L 329 182 Z M 331 175 L 332 174 L 333 175 L 332 176 Z M 333 171 L 334 170 L 335 171 L 334 172 Z M 372 140 L 373 141 L 373 143 L 371 145 L 370 149 L 368 151 L 367 155 L 365 157 L 359 169 L 357 171 L 356 174 L 354 176 L 350 183 L 347 186 L 342 194 L 334 203 L 334 204 L 326 212 L 326 213 L 318 220 L 317 219 L 317 217 L 318 216 L 320 208 L 325 199 L 325 197 L 328 191 L 330 189 L 330 187 L 333 183 L 333 181 L 335 179 L 343 162 L 346 158 L 347 154 L 349 152 L 354 142 L 357 139 L 368 139 L 369 140 Z M 376 125 L 376 127 L 377 128 L 376 129 L 376 135 L 374 137 L 370 135 L 369 136 L 368 135 L 362 135 L 361 134 L 367 128 L 367 127 L 372 123 L 374 123 Z M 386 59 L 391 69 L 391 71 L 395 78 L 395 80 L 398 85 L 398 87 L 402 94 L 402 97 L 401 98 L 369 98 L 368 96 L 375 83 L 375 81 L 384 63 L 384 61 Z M 322 18 L 316 24 L 314 25 L 309 24 L 304 21 L 301 21 L 297 19 L 292 19 L 291 18 L 274 18 L 273 19 L 269 19 L 257 24 L 254 27 L 253 27 L 246 35 L 243 42 L 243 59 L 246 66 L 248 68 L 250 72 L 254 76 L 255 76 L 259 80 L 260 80 L 265 84 L 270 86 L 272 88 L 274 88 L 276 90 L 284 94 L 286 94 L 290 97 L 292 97 L 294 99 L 300 102 L 306 108 L 308 112 L 308 123 L 306 127 L 301 132 L 294 135 L 281 135 L 280 134 L 274 133 L 266 128 L 256 118 L 256 117 L 251 111 L 245 97 L 243 96 L 242 97 L 242 108 L 241 109 L 242 110 L 241 112 L 241 115 L 242 116 L 241 118 L 241 138 L 243 141 L 244 141 L 249 136 L 251 136 L 252 135 L 258 135 L 259 136 L 262 136 L 263 137 L 265 137 L 269 139 L 272 139 L 276 141 L 282 141 L 283 142 L 298 142 L 299 141 L 307 140 L 310 138 L 314 137 L 316 135 L 320 133 L 328 124 L 331 118 L 331 114 L 332 113 L 332 101 L 331 100 L 331 96 L 327 88 L 324 85 L 324 84 L 323 84 L 319 79 L 318 79 L 311 73 L 306 71 L 304 69 L 296 65 L 294 65 L 276 56 L 274 54 L 270 52 L 266 48 L 263 43 L 263 36 L 266 31 L 269 28 L 275 25 L 278 25 L 279 24 L 287 24 L 288 25 L 292 25 L 302 30 L 312 40 L 316 47 L 316 49 L 318 52 L 318 54 L 321 59 L 323 59 L 324 58 L 324 20 Z M 148 19 L 145 20 L 145 21 L 139 26 L 128 24 L 121 21 L 117 21 L 116 20 L 113 20 L 112 19 L 102 19 L 101 18 L 86 18 L 85 19 L 79 19 L 78 20 L 70 21 L 64 24 L 61 24 L 59 26 L 54 28 L 48 33 L 47 33 L 39 41 L 30 55 L 29 60 L 27 63 L 27 67 L 26 68 L 26 74 L 25 75 L 25 84 L 26 85 L 27 96 L 28 97 L 29 102 L 31 105 L 31 107 L 33 109 L 36 115 L 48 127 L 61 135 L 63 135 L 69 138 L 72 138 L 76 140 L 66 149 L 65 149 L 55 159 L 53 163 L 49 167 L 49 168 L 43 176 L 40 182 L 39 186 L 36 188 L 35 191 L 30 198 L 30 200 L 27 204 L 26 209 L 24 212 L 24 214 L 21 221 L 20 231 L 19 232 L 19 238 L 18 239 L 18 254 L 19 255 L 19 258 L 20 259 L 21 267 L 27 277 L 32 282 L 40 286 L 42 286 L 43 287 L 59 287 L 60 286 L 64 286 L 67 284 L 69 284 L 81 278 L 83 276 L 90 272 L 104 260 L 105 260 L 107 258 L 107 257 L 109 256 L 109 255 L 118 246 L 119 246 L 119 245 L 123 241 L 125 237 L 125 235 L 127 234 L 126 233 L 123 233 L 123 235 L 121 237 L 120 237 L 119 239 L 117 240 L 117 241 L 115 242 L 113 245 L 111 245 L 108 250 L 103 255 L 102 255 L 100 258 L 99 258 L 97 260 L 95 260 L 89 266 L 88 265 L 84 267 L 83 266 L 84 264 L 85 264 L 90 259 L 94 257 L 94 256 L 96 254 L 97 254 L 101 250 L 102 250 L 114 238 L 114 237 L 116 236 L 119 231 L 123 227 L 122 227 L 120 229 L 119 229 L 105 243 L 104 243 L 104 244 L 101 247 L 100 247 L 85 261 L 84 261 L 76 268 L 75 268 L 64 276 L 62 276 L 54 280 L 43 280 L 41 279 L 35 273 L 34 269 L 33 268 L 33 265 L 32 264 L 32 246 L 33 245 L 33 240 L 34 239 L 35 230 L 36 229 L 40 215 L 45 205 L 45 203 L 53 187 L 55 185 L 58 178 L 60 176 L 64 169 L 74 157 L 74 156 L 86 143 L 88 142 L 96 142 L 97 141 L 102 141 L 104 143 L 104 146 L 103 147 L 103 150 L 102 151 L 101 156 L 97 163 L 96 169 L 98 172 L 100 172 L 101 173 L 105 172 L 109 167 L 111 160 L 112 159 L 112 156 L 113 155 L 113 152 L 114 151 L 114 141 L 117 139 L 128 138 L 129 137 L 140 135 L 147 131 L 148 129 L 148 124 L 149 123 L 148 106 L 149 105 L 149 99 L 150 98 L 150 96 L 152 94 L 156 92 L 159 92 L 160 91 L 163 91 L 164 90 L 164 88 L 101 88 L 100 89 L 100 91 L 104 91 L 105 92 L 110 92 L 111 93 L 113 93 L 115 94 L 117 97 L 117 101 L 118 102 L 118 125 L 117 126 L 117 130 L 113 133 L 109 133 L 101 128 L 93 128 L 84 133 L 77 129 L 70 122 L 65 113 L 65 111 L 62 104 L 62 101 L 61 100 L 61 93 L 60 92 L 60 67 L 61 66 L 61 59 L 62 58 L 65 47 L 69 40 L 77 32 L 84 28 L 86 28 L 89 26 L 95 26 L 96 25 L 105 25 L 106 26 L 111 26 L 123 31 L 130 37 L 131 37 L 135 41 L 135 42 L 141 50 L 142 54 L 146 61 L 148 61 L 149 60 L 149 20 Z M 88 270 L 89 269 L 90 270 L 89 271 Z M 82 269 L 83 268 L 84 269 L 83 270 Z M 81 268 L 82 267 L 83 268 L 82 269 Z M 92 267 L 93 266 L 94 267 L 93 268 Z M 82 267 L 83 266 L 84 267 L 83 268 Z M 93 266 L 94 265 L 95 266 L 94 267 Z M 101 260 L 102 259 L 103 260 L 102 261 Z M 102 259 L 103 258 L 104 259 L 103 260 Z M 103 258 L 104 257 L 105 258 L 104 259 Z M 22 229 L 23 230 L 23 232 L 22 233 L 21 232 L 21 230 Z M 22 227 L 23 226 L 24 228 L 23 229 Z M 23 223 L 24 222 L 25 224 L 24 225 Z M 24 220 L 25 219 L 26 221 L 25 222 Z M 28 212 L 29 214 L 26 220 L 25 219 L 25 216 Z M 28 210 L 29 209 L 30 211 L 29 212 Z M 29 208 L 30 207 L 31 208 L 30 209 Z M 30 206 L 31 205 L 32 207 L 31 208 Z M 31 204 L 32 203 L 33 204 L 32 205 Z M 36 193 L 37 192 L 38 193 L 37 194 Z M 37 191 L 38 190 L 39 191 L 38 192 Z M 38 189 L 39 188 L 40 189 L 39 190 Z M 39 187 L 40 186 L 41 187 L 40 188 Z M 40 186 L 41 185 L 42 186 L 41 187 Z M 41 184 L 42 183 L 43 184 L 42 185 Z M 42 182 L 43 181 L 44 182 L 43 183 Z M 43 180 L 44 179 L 45 180 L 44 181 Z M 44 178 L 45 177 L 46 178 L 45 179 Z M 45 177 L 46 176 L 47 177 L 46 178 Z M 46 175 L 47 174 L 48 175 L 47 176 Z M 47 174 L 48 173 L 49 174 L 48 175 Z M 50 169 L 51 168 L 52 169 L 51 170 Z M 51 168 L 52 167 L 53 168 L 52 169 Z M 52 167 L 53 166 L 54 167 L 53 168 Z M 53 165 L 54 164 L 55 165 L 54 166 Z M 54 164 L 55 163 L 56 164 L 55 165 Z M 59 158 L 60 157 L 61 158 L 60 159 Z M 60 157 L 61 156 L 62 157 L 61 158 Z"/>
</svg>